HIERARCHY
ROOT Hips
{
  OFFSET -25.8593 92.5765 -0.426625
  CHANNELS 6 Xposition Yposition Zposition Zrotation Xrotation Yrotation
  JOINT ToSpine
  {
    OFFSET -2.69724 7.43032 -0.144315
    CHANNELS 3 Zrotation Xrotation Yrotation
    JOINT Spine
    {
      OFFSET -0.0310711 10.7595 1.96963
      CHANNELS 3 Zrotation Xrotation Yrotation
      JOINT Spine1
      {
        OFFSET 19.9056 3.91189 0.764692
        CHANNELS 3 Zrotation Xrotation Yrotation
        JOINT Neck
        {
          OFFSET 25.9749 7.03908 -0.130764
          CHANNELS 3 Zrotation Xrotation Yrotation
          JOINT Head
          {
            OFFSET 9.52751 0.295786 -0.907742
            CHANNELS 3 Zrotation Xrotation Yrotation
            End Site
            {
              OFFSET 16.4037 0.713936 2.7358
            }
          }
        }
        JOINT LeftShoulder
        {
          OFFSET 17.7449 4.33886 11.7777
          CHANNELS 3 Zrotation Xrotation Yrotation
          JOINT LeftArm
          {
            OFFSET 0.911315 1.27913 9.80584
            CHANNELS 3 Zrotation Xrotation Yrotation
            JOINT LeftForeArm
            {
              OFFSET 28.6126 1.18197 -3.53199
              CHANNELS 3 Zrotation Xrotation Yrotation
              JOINT LeftHand
              {
                OFFSET 27.5088 0.0218783 0.327423
                CHANNELS 3 Zrotation Xrotation Yrotation
                End Site
                {
                  OFFSET 18.6038 -0.000155887 0.382096
                }
              }
            }
          }
        }
        JOINT RightShoulder
        {
          OFFSET 17.1009 2.89543 -12.2328
          CHANNELS 3 Zrotation Xrotation Yrotation
          JOINT RightArm
          {
            OFFSET 1.4228 0.178766 -10.211
            CHANNELS 3 Zrotation Xrotation Yrotation
            JOINT RightForeArm
            {
              OFFSET 28.733 1.87905 2.64907
              CHANNELS 3 Zrotation Xrotation Yrotation
              JOINT RightHand
              {
                OFFSET 27.4588 0.290562 -0.101845
                CHANNELS 3 Zrotation Xrotation Yrotation
                End Site
                {
                  OFFSET 17.8396 -0.255518 -0.000602873
                }
              }
            }
          }
        }
      }
    }
  }
  JOINT LeftUpLeg
  {
    OFFSET -5.61296 -2.22332 -10.2353
    CHANNELS 3 Zrotation Xrotation Yrotation
    JOINT LeftLeg
    {
      OFFSET 2.56703 -44.7417 -7.93097
      CHANNELS 3 Zrotation Xrotation Yrotation
      JOINT LeftFoot
      {
        OFFSET 3.16933 -46.5642 -3.96578
        CHANNELS 3 Zrotation Xrotation Yrotation
        JOINT LeftToeBase
        {
          OFFSET 0.346054 -6.02161 12.8035
          CHANNELS 3 Zrotation Xrotation Yrotation
          End Site
          {
            OFFSET 0.134235 -1.35082 5.13018
          }
        }
      }
    }
  }
  JOINT RightUpLeg
  {
    OFFSET -5.7928 -1.72406 10.6446
    CHANNELS 3 Zrotation Xrotation Yrotation
    JOINT RightLeg
    {
      OFFSET -2.57161 -44.7178 -7.85259
      CHANNELS 3 Zrotation Xrotation Yrotation
      JOINT RightFoot
      {
        OFFSET -3.10148 -46.5936 -4.03391
        CHANNELS 3 Zrotation Xrotation Yrotation
        JOINT RightToeBase
        {
          OFFSET -0.0828122 -6.13587 12.8035
          CHANNELS 3 Zrotation Xrotation Yrotation
          End Site
          {
            OFFSET -0.131328 -1.35082 5.13018
          }
        }
      }
    }
  }
}
MOTION
Frames:	10
Frame Time:	0.0333333
0.0612082 93.4778 26.2586 72.9095 -27.6122 -14.6209 -70.1915 0 88.8779 95.8056 66.6812 -21.6582 2.57391 13.95 4.73391 -163.801 18.6806 170.338 -152.648 55.7997 167.551 2.16253 -1.55562 -24.289 -75.9739 35.4733 -130.177 16.8775 10.6407 -55.0149 17.1323 -1.21442 -6.2346 0.456914 -2.41974 23.8639 -68.369 -60.4554 63.5691 20.7724 -12.3665 57.1369 12.1195 0.374312 3.35299 -72.3453 -10.2498 83.4568 -4.28439 49.4439 -13.1763 6.87304 0.327136 -0.93651 -8.84535 -37.6584 10.3979 -9.76629 -6.53167 86.2732 166.334 73.667 -170.557 -7.17802 -3.74281 1.07496 7.79563 5.20016 -23.1795 
12.7798 96.9665 38.9436 69.126 -27.2879 -11.2206 -70.1915 0 88.8779 90.1118 65.0019 -12.0561 2.22401 11.9294 8.77184 -164.884 17.1917 171.418 -154.876 54.4995 167.257 2.28542 -0.77646 -24.5635 -75.0472 34.5848 -128.899 19.1656 6.66373 -69.5992 16.615 -1.18769 -6.30184 0.288343 -0.961405 22.252 -68.2497 -62.7089 59.5156 17.891 -11.3028 54.6048 11.4782 0.396476 3.80674 -81.1762 4.5057 99.6594 2.09925 37.7012 -28.1192 -0.821421 3.84188 0.288617 -2.87046 -3.68942 9.53902 -8.39479 -3.73363 81.4752 18.5807 80.5961 -15.2598 -6.39368 -5.46844 1.03212 4.2835 13.7376 -18.1048 
25.3524 99.262 50.3975 67.313 -27.115 -11.1 -70.1915 0 88.8779 85.757 63.7592 -6.29547 3.07326 11.0265 9.673 -164.249 16.1161 169.608 -153.105 52.6963 164.568 2.3238 0.133919 -23.6867 -73.5954 31.5589 -126.481 20.1268 2.55077 -82.755 16.5476 -1.50545 -8.46278 0.190154 0.0442135 22.3089 -68.5928 -63.4953 56.7407 14.0193 -8.91665 52.8424 10.2504 0.407116 4.46693 -87.4977 3.2209 85.8553 -2.14511 37.1394 -8.23999 0.903688 7.38124 0.247068 -4.25117 -5.54684 15.3662 -11.5065 -3.17928 80.5761 3.08363 54.1291 1.86959 -4.49245 -2.665 0.799959 -1.60803 8.27255 -2.38171 
37.13 100.108 60.2291 69.1134 -26.1824 -10.8568 -70.1915 0 88.8779 88.2422 62.8463 -7.3879 5.81931 11.2293 7.49793 -164.439 16.3029 170.047 -152.841 52.9936 165.658 2.29126 0.327491 -23.0832 -71.9476 30.0356 -122.664 21.451 -0.392643 -91.7048 17.1537 -1.38516 -7.3291 0.213904 -0.228598 23.3402 -73.5274 -63.5091 52.947 11.0015 -6.78292 51.8656 9.92229 0.375203 4.24606 -88.6931 0.536984 81.5038 -3.82351 53.6583 -5.79795 -0.381805 10.2914 0.699401 -5.39797 -15.6277 15.3428 -16.4617 -6.88541 76.7959 1.27319 36.4358 0.876836 -2.24893 3.92796 0.239996 0.473474 5.4028 -5.25971 
49.2883 99.5446 70.8351 71.1658 -29.033 -10.9594 -70.1915 0 88.8779 91.7691 64.3115 -8.83162 7.87699 13.3334 5.35503 -164.477 16.9883 171.567 -152.405 53.7222 165.336 2.09825 -0.58663 -22.0758 -69.6739 33.0938 -117.634 17.469 -0.0191287 -90.9672 16.6168 -1.01947 -5.17643 0.329458 -1.30141 23.4645 -71.6147 -62.9061 57.9567 10.162 -6.24387 51.2083 10.0315 0.410089 4.61576 -87.2476 -1.39046 84.0753 -14.1733 75.6764 2.35818 0.110114 10.0245 0.577897 -5.66402 -18.4347 14.3782 -21.0339 -8.70388 68.272 1.48525 34.322 3.81011 -2.35435 2.48803 0.328571 -4.41628 12.6079 0.767032 
60.8362 96.7001 81.977 71.4491 -34.3951 -8.30261 -70.1915 0 88.8779 100.154 65.3773 -13.2894 8.0397 15.0821 6.75728 -165.171 16.2685 172.987 -149.995 52.3051 163.009 2.3892 0.314238 -24.1511 -69.0755 36.041 -110.324 16.4106 2.26943 -82.0148 15.9921 -0.706869 -3.26987 0.313884 -1.13196 23.9985 -66.9811 -58.4237 67.8794 8.50337 -4.747 52.2779 10.265 0.366184 3.9749 -82.1186 3.5716 89.9212 -153.615 80.0756 147.456 2.13903 9.73875 0.143774 -6.09847 -22.6998 10.2302 -23.1002 -2.49478 66.8592 2.24669 43.226 5.28838 -2.71583 1.83987 0.41094 -5.43455 15.2736 1.13001 
72.0562 94.3457 92.6746 70.6856 -38.4862 -6.25388 -70.1915 0 88.8779 106.76 66.0653 -15.4367 9.42884 16.3533 6.8273 -166.101 15.3518 174.341 -150.307 51.6917 165.047 2.8965 1.58272 -27.4588 -68.2632 37.6979 -104.726 16.8016 6.34927 -67.5504 17.8266 -1.23157 -6.03319 0.336286 -1.2232 26.0363 -65.5759 -51.9149 78.6105 7.26663 -3.78091 52.3681 10.6967 0.288851 2.91161 -71.6024 7.40268 91.3682 -169.384 61.6608 169.832 4.75441 11.2948 -0.341906 -6.86797 -27.3239 13.2172 -25.2877 4.65789 68.445 3.9737 55.1589 6.00509 -5.01516 -3.66892 0.879443 5.91389 12.4686 -21.2277 
82.3603 92.3967 102.806 68.3669 -41.2009 -4.91463 -70.1915 0 88.8779 113.066 67.3918 -16.8527 8.88543 18.3243 7.31484 -166.998 15.6553 174.992 -149.788 51.9121 164.453 2.94472 1.39544 -28.2047 -63.8835 40.8538 -103.756 15.12 10.4249 -51.9547 18.8129 -1.37162 -6.45467 0.393328 -1.67404 25.8413 -69.7004 -49.3347 85.3723 8.65069 -4.46886 55.0355 11.2365 0.146789 1.21518 -52.9335 8.34887 85.7604 -171.35 47.4548 171.552 5.97083 9.18469 -0.647627 -6.97624 -27.7937 11.3507 -27.5136 11.9563 70.3624 5.96492 63.4006 3.55406 -4.98699 -3.91217 0.883714 10.4749 -11.6258 -23.8751 
94.1498 91.5856 113.44 66.3355 -43.2294 -4.14593 -70.1915 0 88.8779 118.562 68.3661 -17.8272 7.45495 20.5044 6.96176 -166.528 16.386 174.228 -149.14 52.4549 163.73 2.93812 1.50374 -27.974 -55.7618 43.0681 -105.416 10.7304 10.6137 -39.2587 20.589 -1.40721 -5.94076 0.339016 -1.28787 25.1581 -72.2135 -48.0961 90.4271 11.9466 -5.39189 61.8098 10.2015 0.194225 1.95253 -33.5385 5.49831 79.0414 -171.665 45.3812 172.876 4.27668 7.85834 -0.356427 -6.99879 -27.7966 10.264 -35.9755 16.2333 71.1406 7.3541 65.4992 4.67496 -6.38561 -6.17529 1.0428 11.8415 -22.9195 -21.106 
107.91 92.2114 126.043 67.1653 -44.7657 -6.23564 -70.1915 0 88.8779 117.915 70.1769 -18.2495 4.92792 22.7822 6.76959 -163.709 17.4587 172.73 -149.977 53.7731 164.111 2.91373 1.70339 -27.4442 -45.2147 44.361 -108.011 8.31035 10.22 -31.0676 22.2499 -1.44852 -5.5715 0.289802 -0.926158 23.734 -68.4668 -46.9419 96.8558 8.99081 -2.9551 68.9871 9.81122 0.270967 3.00594 -23.0753 1.75287 80.2033 -171.851 56.0818 -179.085 4.18928 6.91675 -0.373142 -7.55828 -31.7465 12.9877 -53.157 15.0741 75.0713 6.15317 61.155 6.77337 -8.66214 -13.279 1.16995 10.3869 -17.8378 -18.7388 
